<?xml version="1.0" encoding="utf-8"?>
<!-- Generator: Adobe Illustrator 16.0.2, SVG Export Plug-In . SVG Version: 6.00 Build 0)  -->
<!DOCTYPE svg PUBLIC "-//W3C//DTD SVG 1.1//EN" "http://www.w3.org/Graphics/SVG/1.1/DTD/svg11.dtd">
<svg version="1.1" id="圖層_1" xmlns="http://www.w3.org/2000/svg" xmlns:xlink="http://www.w3.org/1999/xlink" x="0px" y="0px"
	 width="25.9px" height="24.3px" viewBox="0 0 25.9 24.3" enable-background="new 0 0 25.9 24.3" xml:space="preserve">
<rect x="-110.5" y="36.4" fill="#EA5514" stroke="#40220F" stroke-width="3" stroke-linejoin="round" stroke-miterlimit="10" width="122.8" height="9.3"/>
<rect x="-106.8" y="46.2" fill="#FAEE00" stroke="#40220F" stroke-width="3" stroke-linejoin="round" stroke-miterlimit="10" width="115.4" height="7"/>
<path id="XMLID_11_" fill="#89BA28" stroke="#8FC31F" stroke-width="5" stroke-linecap="round" stroke-linejoin="round" stroke-miterlimit="10" d="
	M2.8,43.5c0,1.7-1.6,3.1-3.5,3.1c-1.9,0-3.5-1.4-3.5-3.1c0-1.7-1.6-3.1-3.5-3.1c-1.9,0-3.5,1.4-3.5,3.1c0,1.7-1.6,3.1-3.5,3.1
	c-1.9,0-3.5-1.4-3.5-3.1c0-1.7-1.6-3.1-3.5-3.1c-1.9,0-3.5,1.4-3.5,3.1c0,1.7-1.6,3.1-3.5,3.1s-3.5-1.4-3.5-3.1
	c0-1.7-1.6-3.1-3.5-3.1c-1.9,0-3.5,1.4-3.5,3.1c0,1.7-1.6,3.1-3.5,3.1c-1.9,0-3.5-1.4-3.5-3.1c0-1.7-1.6-3.1-3.5-3.1
	c-1.9,0-3.5,1.4-3.5,3.1c0,1.7-1.6,3.1-3.5,3.1c-1.9,0-2.7-1.4-2.7-3.1c0-1.7-1.6-3.1-3.5-3.1c-1.9,0-3.5,1.4-3.5,3.1
	c0,1.7-1.6,3.1-3.5,3.1s-3.5-1.4-3.5-3.1c0-1.7-1.6-3.1-3.5-3.1c-1.9,0-3.5,1.4-3.5,3.1c0,1.7-1.6,3.1-3.5,3.1
	c-1.9,0-3.5-1.4-3.5-3.1c0-1.7-1.6-3.1-3.5-3.1s-3.5,1.4-3.5,3.1c0,1.7-1.6,3.1-3.5,3.1s-2.9-1.4-2.9-3.1v-6.2H2.9v6.2H2.8z"/>
<path id="XMLID_1_" fill="#C3875C" stroke="#40220F" stroke-width="5" stroke-linecap="round" stroke-linejoin="round" stroke-miterlimit="10" d="
	M-29.3,4.2H-32h-67.1c-8.9,0-16.1,14.3-16.1,31.9l0,0h29.7h6.8h95.7v0.3l0,0c0-5.6,0.7-15.8-2.4-23.2c-2.2-5.2-6.3-9-13.8-9h-3.6
	h-5.3"/>
<path fill="#C3875C" stroke="#40220F" stroke-width="5" stroke-linecap="round" stroke-linejoin="round" stroke-miterlimit="10" d="
	M-76.9,36.4"/>
<path fill="#C3875C" stroke="#40220F" stroke-width="5" stroke-linecap="round" stroke-linejoin="round" stroke-miterlimit="10" d="
	M-83.7,36.4"/>
<path fill="#C3875C" stroke="#40220F" stroke-width="5" stroke-linecap="round" stroke-linejoin="round" stroke-miterlimit="10" d="
	M-92.6,36.4"/>
<ellipse fill="#FFFFFF" cx="-88.2" cy="24.3" rx="2.7" ry="1.9"/>
<ellipse fill="#FFFFFF" cx="-52.2" cy="13.2" rx="2.7" ry="1.9"/>
<ellipse fill="#FFFFFF" cx="-13.2" cy="26.3" rx="2.7" ry="1.9"/>
<ellipse fill="#FFFFFF" cx="-29.3" cy="17.1" rx="2.7" ry="1.9"/>
<ellipse fill="#FFFFFF" cx="-43.8" cy="26.3" rx="2.7" ry="1.9"/>
<ellipse fill="#FFFFFF" cx="-89.9" cy="9.3" rx="2.7" ry="1.9"/>
<ellipse fill="#FFFFFF" cx="-69.5" cy="20.5" rx="2.7" ry="1.9"/>
<path fill="#C3875C" stroke="#40220F" stroke-width="5" stroke-linecap="round" stroke-linejoin="round" stroke-miterlimit="10" d="
	M8.6,6.1"/>
<ellipse fill="#E4B04C" cx="10.1" cy="-2.3" rx="10.1" ry="11.7"/>
<ellipse fill="#E4B04C" cx="17" cy="11.3" rx="10.1" ry="11.7"/>
</svg>
