<?xml version="1.0" encoding="utf-8"?>
<!-- Generator: Adobe Illustrator 19.0.0, SVG Export Plug-In . SVG Version: 6.00 Build 0)  -->
<svg version="1.1" id="Layer_1" xmlns="http://www.w3.org/2000/svg" xmlns:xlink="http://www.w3.org/1999/xlink" x="0px" y="0px"
	 width="95.2px" height="20.7px" viewBox="0 0 95.2 20.7" style="enable-background:new 0 0 95.2 20.7;" xml:space="preserve">
<style type="text/css">
	.st0{fill:#D16B6B;stroke:#000000;stroke-width:1.5;stroke-linecap:round;stroke-linejoin:round;stroke-miterlimit:10;}
	.st1{fill:#CCE5BA;stroke:#000000;stroke-width:1.5;stroke-linecap:round;stroke-linejoin:round;stroke-miterlimit:10;}
	.st2{fill:#EFE2BD;stroke:#000000;stroke-width:1.5;stroke-linecap:round;stroke-linejoin:round;stroke-miterlimit:10;}
	.st3{fill:none;stroke:#000000;stroke-width:1.5;stroke-linecap:round;stroke-linejoin:round;stroke-miterlimit:10;}
</style>
<g id="XMLID_17_">
	<rect id="XMLID_12_" x="2.1" y="12.3" class="st0" width="90.9" height="5.8"/>
	<path id="XMLID_11_" class="st1" d="M90.5,17c0,1.6-1.3,2.9-2.9,2.9c-1.6,0-2.9-1.3-2.9-2.9s-1.3-2.9-2.9-2.9
		c-1.6,0-2.9,1.3-2.9,2.9s-1.3,2.9-2.9,2.9c-1.6,0-2.9-1.3-2.9-2.9s-1.3-2.9-2.9-2.9c-1.6,0-2.9,1.3-2.9,2.9s-1.3,2.9-2.9,2.9
		s-2.9-1.3-2.9-2.9s-1.3-2.9-2.9-2.9s-2.9,1.3-2.9,2.9s-1.3,2.9-2.9,2.9c-1.6,0-2.9-1.3-2.9-2.9s-1.3-2.9-2.9-2.9
		c-1.6,0-2.9,1.3-2.9,2.9s-1.3,2.9-2.9,2.9S39,18.6,39,17s-1.3-2.9-2.9-2.9c-1.6,0-2.9,1.3-2.9,2.9c0,1.6-1.3,2.9-2.9,2.9
		c-1.6,0-2.9-1.3-2.9-2.9s-1.3-2.9-2.9-2.9s-2.9,1.3-2.9,2.9s-1.3,2.9-2.9,2.9c-1.6,0-2.9-1.3-2.9-2.9s-1.3-2.9-2.9-2.9
		s-2.9,1.3-2.9,2.9s-1.3,2.9-2.9,2.9S4.7,18.6,4.7,17v-5.8h85.9V17z"/>
	<path id="XMLID_2_" class="st2" d="M94.4,12.3L94.4,12.3c0-6.3-5.2-11.5-11.5-11.5H12.2C5.9,0.8,0.8,5.9,0.8,12.2v0H94.4z"/>
	<path id="XMLID_13_" class="st3" d="M19.5,0.8c3.9,0,7.1,3.2,7.1,7.1"/>
	<path id="XMLID_14_" class="st3" d="M42.5,0.8c3.9,0,7.1,3.2,7.1,7.1"/>
	<path id="XMLID_15_" class="st3" d="M67.2,0.8c3.9,0,7.1,3.2,7.1,7.1"/>
</g>
</svg>
